<svg fill="none" height="19" viewBox="0 0 16 19" width="16" xmlns="http://www.w3.org/2000/svg">
    <path
        d="M12.7315 10.1964C12.7236 8.75907 13.3738 7.6742 14.6897 6.87524C13.9534 5.82171 12.8411 5.24207 11.3724 5.12849C9.98208 5.01883 8.46248 5.9392 7.90634 5.9392C7.31886 5.9392 5.97159 5.16766 4.91413 5.16766C2.72873 5.20291 0.40625 6.91049 0.40625 10.3844C0.40625 11.4105 0.594242 12.4706 0.970225 13.5646C1.47154 15.0019 3.28096 18.5268 5.16871 18.468C6.15566 18.4445 6.8528 17.767 8.13741 17.767C9.38285 17.767 10.0291 18.468 11.1296 18.468C13.033 18.4406 14.6701 15.2369 15.1479 13.7957C12.5944 12.5933 12.7315 10.2708 12.7315 10.1964ZM10.5147 3.76556C11.5839 2.49662 11.486 1.34126 11.4547 0.926117C10.5108 0.980948 9.4181 1.56842 8.79538 2.29297C8.10999 3.06843 7.7066 4.02796 7.79276 5.10891C8.81496 5.18724 9.74709 4.66243 10.5147 3.76556Z"
        fill="#100F15" />
</svg>
