<svg fill="none" height="40" viewBox="0 0 40 40" width="40" xmlns="http://www.w3.org/2000/svg">
    <circle cx="20" cy="20" fill="white" r="20" />
    <path clip-rule="evenodd" d="M25.8401 14.9322C25.8907 14.8815 25.931 14.8213 25.9584 14.7551C25.9858 14.6888 26 14.6178 26 14.5461C26 14.4744 25.9858 14.4034 25.9584 14.3371C25.931 14.2709 25.8907 14.2107 25.8401 14.1599C25.7894 14.1092 25.7292 14.069 25.6628 14.0416C25.5966 14.0141 25.5256 14 25.454 14C25.3822 14 25.3112 14.0141 25.245 14.0416C25.1786 14.069 25.1184 14.1092 25.0678 14.1599L20 19.2288L14.9322 14.1599C14.8815 14.1092 14.8213 14.069 14.7551 14.0416C14.6888 14.0141 14.6178 14 14.5461 14C14.4744 14 14.4034 14.0141 14.3371 14.0416C14.2709 14.069 14.2107 14.1092 14.1599 14.1599C14.1092 14.2107 14.069 14.2709 14.0416 14.3371C14.0141 14.4034 14 14.4744 14 14.5461C14 14.6178 14.0141 14.6888 14.0416 14.7551C14.069 14.8213 14.1092 14.8815 14.1599 14.9322L19.2288 20L14.1599 25.0678C14.0575 25.1702 14 25.3091 14 25.454C14 25.5988 14.0575 25.7377 14.1599 25.8401C14.2624 25.9425 14.4013 26 14.5461 26C14.6909 26 14.8298 25.9425 14.9322 25.8401L20 20.7712L25.0678 25.8401C25.1701 25.9425 25.3091 26 25.454 26C25.5987 26 25.7377 25.9425 25.8401 25.8401C25.9424 25.7377 26 25.5988 26 25.454C26 25.3091 25.9424 25.1702 25.8401 25.0678L20.7712 20L25.8401 14.9322Z"
        fill="black"
        fill-rule="evenodd" />
</svg>
