<svg width="40" height="40" viewBox="0 0 40 40" fill="none" xmlns="http://www.w3.org/2000/svg">
<circle cx="20" cy="20" r="20" fill="white"/>
<path fill-rule="evenodd" clip-rule="evenodd" d="M27.3068 13.1264C27.3679 13.0652 27.4166 12.9924 27.4498 12.9124C27.4829 12.8323 27.5 12.7465 27.5 12.6598C27.5 12.5732 27.4829 12.4874 27.4498 12.4073C27.4166 12.3273 27.3679 12.2545 27.3068 12.1933C27.2455 12.132 27.1727 12.0834 27.0926 12.0502C27.0126 12.0171 26.9268 12 26.8402 12C26.7535 12 26.6677 12.0171 26.5877 12.0502C26.5075 12.0834 26.4348 12.132 26.3736 12.1933L20.25 18.3182L14.1264 12.1933C14.0652 12.132 13.9924 12.0834 13.9124 12.0502C13.8323 12.0171 13.7465 12 13.6599 12C13.5732 12 13.4874 12.0171 13.4073 12.0502C13.3273 12.0834 13.2545 12.132 13.1933 12.1933C13.132 12.2545 13.0834 12.3273 13.0502 12.4073C13.0171 12.4874 13 12.5732 13 12.6598C13 12.7465 13.0171 12.8323 13.0502 12.9124C13.0834 12.9924 13.132 13.0652 13.1933 13.1264L19.3181 19.25L13.1933 25.3736C13.0695 25.4974 13 25.6652 13 25.8402C13 26.0152 13.0695 26.183 13.1933 26.3068C13.317 26.4305 13.4848 26.5 13.6599 26.5C13.8349 26.5 14.0027 26.4305 14.1264 26.3068L20.25 20.1819L26.3736 26.3068C26.4972 26.4305 26.6652 26.5 26.8402 26.5C27.0151 26.5 27.183 26.4305 27.3068 26.3068C27.4304 26.183 27.5 26.0152 27.5 25.8402C27.5 25.6652 27.4304 25.4974 27.3068 25.3736L21.1818 19.25L27.3068 13.1264Z" fill="black"/>
</svg>
