<svg fill="none" height="18" viewBox="0 0 17 18" width="17" xmlns="http://www.w3.org/2000/svg">
    <path
        d="M15.4286 2.57143C15.4286 2.23044 15.2931 1.90341 15.052 1.66229C14.8109 1.42117 14.4838 1.28571 14.1429 1.28571H11.5714V0H10.2857V1.28571H5.14286V0H3.85714V1.28571H1.28571C0.944722 1.28571 0.617695 1.42117 0.376577 1.66229C0.135459 1.90341 0 2.23044 0 2.57143V15.4286C0 15.7696 0.135459 16.0966 0.376577 16.3377C0.617695 16.5788 0.944722 16.7143 1.28571 16.7143H3.85714V15.4286H1.28571V2.57143H3.85714V3.85714H5.14286V2.57143H10.2857V3.85714H11.5714V2.57143H14.1429V6.42857H15.4286V2.57143Z"
        fill="white" />
    <path
        d="M10.9286 8.35714L12.5672 11.5316L16.0714 12.0401L13.5 14.5112L14.1429 18L10.9286 16.353L7.71429 18L8.35714 14.5112L5.78571 12.0401L9.38571 11.5316L10.9286 8.35714Z"
        fill="white" />
</svg>
