<svg width="40" height="40" viewBox="0 0 40 40" fill="none" xmlns="http://www.w3.org/2000/svg">
<circle cx="20" cy="20" r="20" fill="white"/>
<path d="M19.875 27C19.7754 27.001 19.6774 26.9758 19.5906 26.9271C19.2771 26.7521 12 22.6177 12 17.375C12 16.4568 12.2889 15.5618 12.8258 14.8169C13.3627 14.072 14.1204 13.5149 14.9915 13.2245C15.8626 12.9341 16.803 12.9252 17.6795 13.199C18.5559 13.4728 19.324 14.0154 19.875 14.75C20.4259 14.0154 21.194 13.4728 22.0705 13.199C22.947 12.9252 23.8874 12.9341 24.7585 13.2245C25.6296 13.5149 26.3873 14.072 26.9242 14.8169C27.4611 15.5618 27.75 16.4568 27.75 17.375C27.75 19.6062 26.4593 21.8958 23.9146 24.1854C22.759 25.2242 21.5008 26.1428 20.1594 26.9271C20.0726 26.9758 19.9745 27.001 19.875 27ZM16.375 14.1667C15.5241 14.1667 14.708 14.5047 14.1064 15.1064C13.5047 15.708 13.1667 16.5241 13.1667 17.375C13.1667 21.4 18.5625 24.9364 19.875 25.7385C21.1875 24.9364 26.5833 21.4 26.5833 17.375C26.584 16.6333 26.3277 15.9143 25.858 15.3403C25.3883 14.7663 24.7342 14.3727 24.007 14.2266C23.2799 14.0805 22.5246 14.1908 21.8696 14.5388C21.2146 14.8868 20.7005 15.451 20.4146 16.1354C20.3706 16.2424 20.2959 16.3339 20.1998 16.3983C20.1037 16.4627 19.9906 16.4971 19.875 16.4971C19.7593 16.4971 19.6463 16.4627 19.5502 16.3983C19.4541 16.3339 19.3793 16.2424 19.3354 16.1354C19.0926 15.5508 18.6816 15.0516 18.1545 14.701C17.6274 14.3505 17.008 14.1645 16.375 14.1667Z" fill="#0F0F10"/>
</svg>
