<svg fill="none" height="18" viewBox="0 0 19 18" width="19" xmlns="http://www.w3.org/2000/svg">
    <path
        d="M7.89797 18C7.57922 18 7.31222 17.892 7.09697 17.676C6.88097 17.4608 6.77297 17.1938 6.77297 16.875V10.125L0.247967 1.8C-0.0332827 1.425 -0.0752827 1.03125 0.121967 0.61875C0.318467 0.20625 0.660468 0 1.14797 0H16.898C17.3855 0 17.7278 0.20625 17.9251 0.61875C18.1216 1.03125 18.0792 1.425 17.798 1.8L11.273 10.125V16.875C11.273 17.1938 11.1653 17.4608 10.9501 17.676C10.7341 17.892 10.4667 18 10.148 18H7.89797ZM9.02297 9.3375L14.5917 2.25H3.45422L9.02297 9.3375Z"
        fill="white" />
</svg>
