<svg width="18" height="19" viewBox="0 0 18 19" fill="none" xmlns="http://www.w3.org/2000/svg">
<path d="M17.4704 9.88112C17.4704 9.30268 17.4191 8.75353 17.3313 8.21902H9.05737V11.5213H13.7947C13.5824 12.6049 12.96 13.5202 12.0374 14.1425V16.3392H14.8637C16.5185 14.8089 17.4704 12.5537 17.4704 9.88112Z" fill="#4285F4"/>
<path d="M9.05748 18.4699C11.4298 18.4699 13.4141 17.6791 14.8639 16.3392L12.0375 14.1426C11.2468 14.6697 10.2436 14.9919 9.05748 14.9919C6.76568 14.9919 4.82534 13.447 4.12975 11.3602H1.21558V13.6227C2.65802 16.4929 5.62344 18.4699 9.05748 18.4699Z" fill="#34A853"/>
<path d="M4.12971 11.3603C3.94666 10.8331 3.85147 10.2693 3.85147 9.68353C3.85147 9.09777 3.95398 8.53397 4.12971 8.00679V5.74428H1.21554C0.615131 6.93045 0.270996 8.26306 0.270996 9.68353C0.270996 11.104 0.615131 12.4366 1.21554 13.6228L4.12971 11.3603Z" fill="#FBBC05"/>
<path d="M9.05748 4.37495C10.3535 4.37495 11.5104 4.82159 12.4256 5.69292L14.9297 3.18878C13.4141 1.7683 11.4298 0.89698 9.05748 0.89698C5.62344 0.89698 2.65802 2.87393 1.21558 5.74417L4.12975 8.00668C4.82534 5.9199 6.76568 4.37495 9.05748 4.37495Z" fill="#EA4335"/>
</svg>
