<svg fill="none" height="18" viewBox="0 0 19 18" width="19" xmlns="http://www.w3.org/2000/svg">
    <path
        d="M9.09638 8.09964C8.8577 8.09964 8.62879 8.19446 8.46001 8.36323C8.29124 8.53201 8.19642 8.76092 8.19642 8.9996V11.6995C8.19642 11.9382 8.29124 12.1671 8.46001 12.3358C8.62879 12.5046 8.8577 12.5994 9.09638 12.5994C9.33506 12.5994 9.56397 12.5046 9.73275 12.3358C9.90152 12.1671 9.99634 11.9382 9.99634 11.6995V8.9996C9.99634 8.76092 9.90152 8.53201 9.73275 8.36323C9.56397 8.19446 9.33506 8.09964 9.09638 8.09964ZM9.09638 5.39976C8.91838 5.39976 8.74439 5.45254 8.59639 5.55143C8.44839 5.65032 8.33304 5.79087 8.26493 5.95532C8.19681 6.11977 8.17899 6.30072 8.21371 6.47529C8.24844 6.64987 8.33415 6.81023 8.46001 6.93609C8.58587 7.06195 8.74623 7.14766 8.92081 7.18239C9.09538 7.21711 9.27633 7.19929 9.44078 7.13118C9.60523 7.06306 9.74578 6.94771 9.84467 6.79971C9.94356 6.65171 9.99634 6.47772 9.99634 6.29972C9.99634 6.06104 9.90152 5.83213 9.73275 5.66335C9.56397 5.49458 9.33506 5.39976 9.09638 5.39976ZM9.09638 0C7.91454 0 6.74426 0.232782 5.65238 0.685054C4.5605 1.13733 3.56839 1.80023 2.7327 2.63592C1.04495 4.32368 0.0967777 6.61276 0.0967777 8.9996C0.0889101 11.0777 0.808459 13.0931 2.13069 14.6963L0.330767 16.4963C0.205891 16.6228 0.121298 16.7835 0.0876629 16.9581C0.0540277 17.1327 0.0728573 17.3133 0.141776 17.4772C0.216524 17.6392 0.337701 17.7752 0.489922 17.8682C0.642144 17.9611 0.818547 18.0067 0.996738 17.9992H9.09638C11.4832 17.9992 13.7723 17.051 15.4601 15.3633C17.1478 13.6755 18.096 11.3864 18.096 8.9996C18.096 6.61276 17.1478 4.32368 15.4601 2.63592C13.7723 0.94817 11.4832 0 9.09638 0ZM9.09638 16.1993H3.16564L4.0026 15.3623C4.08764 15.279 4.15529 15.1796 4.20164 15.0699C4.24798 14.9602 4.2721 14.8424 4.27259 14.7233C4.26921 14.486 4.17217 14.2595 4.0026 14.0934C2.82418 12.9163 2.09035 11.367 1.92612 9.70948C1.76189 8.05199 2.17743 6.38882 3.10195 5.00335C4.02646 3.61787 5.40275 2.59581 6.99634 2.11128C8.58992 1.62676 10.3022 1.70975 11.8415 2.34612C13.3807 2.98249 14.6517 4.13286 15.4379 5.60125C16.2241 7.06964 16.4768 8.7652 16.1531 10.399C15.8293 12.0329 14.9491 13.5039 13.6624 14.5616C12.3756 15.6192 10.762 16.198 9.09638 16.1993Z"
        fill="white" />
</svg>
