<svg fill="none" height="18" viewBox="0 0 18 18" width="18" xmlns="http://www.w3.org/2000/svg">
    <path
        d="M0.42334 3.9609C0.42334 3.57626 0.652568 3.22863 1.00611 3.07711L6.07113 0.906385C6.3311 0.79497 6.62693 0.803664 6.87991 0.930153L11.2745 3.12744C11.5274 3.25392 11.8233 3.26262 12.0832 3.15122L17.1279 0.989463C17.1937 0.961237 17.2655 0.949802 17.3369 0.956182C17.4082 0.962563 17.4769 0.98656 17.5367 1.02602C17.5965 1.06548 17.6455 1.11917 17.6794 1.18227C17.7134 1.24537 17.7311 1.3159 17.731 1.38754V14.8082C17.731 15.1929 17.5018 15.5405 17.1483 15.692L12.0832 17.8627C11.8233 17.9741 11.5274 17.9655 11.2745 17.839L6.87989 15.6417C6.62693 15.5152 6.3311 15.5065 6.07114 15.6179L1.02651 17.7797C0.960669 17.8079 0.888847 17.8193 0.817493 17.8129C0.746139 17.8066 0.677485 17.7826 0.617694 17.7431C0.557903 17.7036 0.508845 17.6499 0.474923 17.5868C0.441001 17.5238 0.423276 17.4532 0.42334 17.3816V3.9609ZM11.6171 5.23356C11.6171 5.23384 11.6168 5.23403 11.6165 5.2339L6.82366 2.83746C6.57068 2.71097 6.27485 2.70228 6.01488 2.81369L2.73688 4.21855C2.38334 4.37007 2.15411 4.7177 2.15411 5.10234V13.9557C2.15411 14.6459 2.85983 15.1113 3.49431 14.8395L6.12742 13.7114C6.38737 13.6 6.68316 13.6087 6.9361 13.7352L11.3305 15.9324C11.5836 16.059 11.8796 16.0676 12.1396 15.9561L15.4178 14.5498C15.7712 14.3982 16.0003 14.0507 16.0003 13.6661V4.81345C16.0003 4.12319 15.2945 3.65778 14.6601 3.92961L11.6173 5.23321C11.6172 5.23327 11.6171 5.23341 11.6171 5.23356Z"
        fill="white" />
</svg>
