<svg fill="none" height="17" viewBox="0 0 14 17" width="14" xmlns="http://www.w3.org/2000/svg">
    <path clip-rule="evenodd"
        d="M6.928 3.59874e-07H7.072C7.55017 -9.19113e-06 7.94929 -1.70878e-05 8.27535 0.026623C8.61542 0.0544077 8.9347 0.114485 9.23661 0.268318C9.69983 0.504337 10.0764 0.880941 10.3124 1.34415C10.4663 1.64607 10.5264 1.96534 10.5541 2.30541C10.5638 2.42346 10.5699 2.55107 10.5739 2.68855C10.7628 2.69157 10.9341 2.69764 11.0885 2.70985C11.4098 2.73527 11.7116 2.7902 12.001 2.92964C12.4469 3.14454 12.8177 3.48889 13.065 3.91775C13.2254 4.19602 13.3025 4.49295 13.3516 4.81146C13.3985 5.11593 13.4261 5.48894 13.4591 5.93436L13.9339 12.3445C13.9717 12.8548 14.0032 13.2793 13.9997 13.6264C13.9962 13.9872 13.9559 14.3284 13.8106 14.6543C13.5887 15.1519 13.208 15.5618 12.7282 15.8198C12.414 15.9888 12.0766 16.0542 11.7171 16.0844C11.3712 16.1135 10.9456 16.1135 10.4339 16.1134H3.5661C3.05439 16.1135 2.62877 16.1135 2.28291 16.0844C1.92339 16.0542 1.58603 15.9888 1.27177 15.8198C0.791973 15.5618 0.411315 15.1519 0.189432 14.6543C0.0441065 14.3284 0.00383821 13.9872 0.000258451 13.6264C-0.00318535 13.2793 0.0282643 12.8549 0.0660761 12.3445L0.540903 5.93437C0.573889 5.48895 0.601512 5.11593 0.648428 4.81146C0.697507 4.49295 0.774583 4.19602 0.93502 3.91775C1.18228 3.48889 1.55308 3.14454 1.99902 2.92964C2.28839 2.7902 2.5902 2.73527 2.91146 2.70985C3.06586 2.69764 3.23718 2.69157 3.42614 2.68855C3.43006 2.55107 3.43621 2.42346 3.44586 2.30541C3.47364 1.96534 3.53372 1.64607 3.68755 1.34415C3.92357 0.880941 4.30018 0.504337 4.76339 0.268318C5.0653 0.114485 5.38458 0.0544077 5.72465 0.026623C6.05071 -1.70878e-05 6.44983 -9.19113e-06 6.928 3.59874e-07ZM3.41924 4.03163V5.59495C3.41924 5.96575 3.71983 6.26634 4.09063 6.26634C4.46143 6.26634 4.76202 5.96575 4.76202 5.59495V4.02836H9.23798V5.59495C9.23798 5.96575 9.53857 6.26634 9.90937 6.26634C10.2802 6.26634 10.5808 5.96575 10.5808 5.59495V4.03163C10.7363 4.03435 10.8673 4.03934 10.9826 4.04846C11.2223 4.06742 11.3391 4.10124 11.4181 4.1393C11.6208 4.23698 11.7893 4.39351 11.9017 4.58844C11.9455 4.6644 11.9878 4.77835 12.0244 5.01595C12.0623 5.26168 12.0865 5.5814 12.1219 6.05956L12.5927 12.4154C12.6331 12.9613 12.6598 13.3292 12.657 13.6131C12.6543 13.8897 12.6225 14.0215 12.5842 14.1074C12.4833 14.3336 12.3103 14.5199 12.0922 14.6372C12.0094 14.6817 11.8802 14.7232 11.6046 14.7463C11.3217 14.7701 10.9528 14.7707 10.4055 14.7707H3.59452C3.04715 14.7707 2.6783 14.7701 2.39539 14.7463C2.11976 14.7232 1.99063 14.6817 1.90777 14.6372C1.68968 14.5199 1.51666 14.3336 1.4158 14.1074C1.37748 14.0215 1.34572 13.8897 1.34298 13.6131C1.34016 13.3292 1.36686 12.9613 1.40729 12.4154L1.8781 6.05956C1.91352 5.5814 1.93769 5.26168 1.97555 5.01595C2.01216 4.77835 2.05452 4.6644 2.09831 4.58844C2.2107 4.39351 2.37925 4.23698 2.58195 4.1393C2.66093 4.10124 2.77771 4.06742 3.01736 4.04846C3.13268 4.03934 3.26375 4.03435 3.41924 4.03163ZM9.23043 2.68557H4.76957C4.77283 2.58599 4.7775 2.4966 4.78419 2.41476C4.80519 2.15773 4.84268 2.03484 4.88398 1.95377C4.99127 1.74322 5.16245 1.57203 5.373 1.46475C5.45407 1.42344 5.57696 1.38595 5.83399 1.36495C6.09886 1.34331 6.44281 1.34279 6.95524 1.34279H7.04476C7.55719 1.34279 7.90114 1.34331 8.16601 1.36495C8.42304 1.38595 8.54593 1.42344 8.627 1.46475C8.83755 1.57203 9.00873 1.74321 9.11602 1.95377C9.15732 2.03484 9.19482 2.15773 9.21582 2.41476C9.2225 2.4966 9.22717 2.58599 9.23043 2.68557Z"
        fill="white" fill-rule="evenodd" />
</svg>
