<svg width="86" height="25" viewBox="0 0 86 25" fill="none" xmlns="http://www.w3.org/2000/svg">
<path d="M21.6204 16.032V15.344H23.2524C23.5671 15.344 23.8098 15.256 23.9804 15.08C24.1564 14.8987 24.2444 14.6587 24.2444 14.36C24.2444 14.056 24.1591 13.8187 23.9884 13.648C23.8178 13.472 23.5724 13.384 23.2524 13.384H21.6204V12.872H23.1404C23.5138 12.872 23.8418 12.9173 24.1244 13.008C24.4124 13.0987 24.6364 13.2507 24.7964 13.464C24.9618 13.672 25.0444 13.9573 25.0444 14.32V14.432C25.0444 14.7733 24.9751 15.064 24.8364 15.304C24.6978 15.5387 24.4871 15.72 24.2044 15.848C23.9218 15.9707 23.5671 16.032 23.1404 16.032H21.6204ZM20.9964 16.032V10.128H21.7804V16.032H20.9964ZM21.6204 13.24V12.728H23.0364C23.3671 12.728 23.6098 12.64 23.7644 12.464C23.9244 12.2827 24.0044 12.0533 24.0044 11.776C24.0044 11.4933 23.9244 11.264 23.7644 11.088C23.6098 10.9067 23.3671 10.816 23.0364 10.816H21.6204V10.128H22.9004C23.5404 10.128 24.0178 10.264 24.3324 10.536C24.6471 10.8027 24.8044 11.1893 24.8044 11.696V11.808C24.8044 12.1653 24.7244 12.4507 24.5644 12.664C24.4044 12.872 24.1804 13.0213 23.8924 13.112C23.6098 13.1973 23.2791 13.24 22.9004 13.24H21.6204ZM27.8019 16.128C27.2953 16.128 26.9059 15.9627 26.6339 15.632C26.3619 15.3013 26.2259 14.824 26.2259 14.2V11.72H26.9939V14.352C26.9939 14.688 27.0846 14.952 27.2659 15.144C27.4473 15.3307 27.6926 15.424 28.0019 15.424C28.3219 15.424 28.5833 15.3227 28.7859 15.12C28.9886 14.912 29.0899 14.6293 29.0899 14.272V11.72H29.8579V16H29.2499V14.168H29.3459C29.3459 14.5893 29.2899 14.9467 29.1779 15.24C29.0659 15.528 28.8979 15.7493 28.6739 15.904C28.4553 16.0533 28.1753 16.128 27.8339 16.128H27.8019ZM31.0574 17.664V16.976H31.6734C31.8547 16.976 32.0067 16.952 32.1294 16.904C32.2574 16.8613 32.3614 16.7867 32.4414 16.68C32.5267 16.5733 32.596 16.432 32.6494 16.256L33.9934 11.728H34.7454L33.3214 16.456C33.236 16.7387 33.116 16.968 32.9614 17.144C32.8067 17.3253 32.6174 17.456 32.3934 17.536C32.1747 17.6213 31.9187 17.664 31.6254 17.664H31.0574ZM32.3614 15.904V15.264H33.2894V15.904H32.3614ZM32.2814 15.904L30.7534 11.728H31.5374L33.0014 15.904H32.2814ZM38.7887 16V10.704H39.5727V16H38.7887ZM37.0127 10.864V10.16H41.3487V10.864H37.0127ZM42.2907 16V10.16H43.0587V13.648H42.8667C42.8667 13.2267 42.92 12.864 43.0267 12.56C43.1387 12.2507 43.3094 12.0133 43.5387 11.848C43.768 11.6827 44.0614 11.6 44.4187 11.6H44.4507C44.9627 11.6 45.3494 11.7707 45.6107 12.112C45.872 12.448 46.0027 12.9307 46.0027 13.56V16H45.2347V13.4C45.2347 13.0533 45.136 12.784 44.9387 12.592C44.7467 12.4 44.496 12.304 44.1867 12.304C43.8454 12.304 43.5707 12.4187 43.3627 12.648C43.16 12.872 43.0587 13.168 43.0587 13.536V16H42.2907ZM49.2239 16.144C48.8505 16.144 48.5279 16.08 48.2559 15.952C47.9839 15.824 47.7625 15.656 47.5919 15.448C47.4212 15.2347 47.2932 14.9973 47.2079 14.736C47.1279 14.4747 47.0879 14.208 47.0879 13.936V13.792C47.0879 13.5147 47.1279 13.2453 47.2079 12.984C47.2932 12.7227 47.4212 12.488 47.5919 12.28C47.7625 12.0667 47.9785 11.8987 48.2399 11.776C48.5065 11.648 48.8185 11.584 49.1759 11.584C49.6399 11.584 50.0212 11.6853 50.3199 11.888C50.6239 12.0853 50.8479 12.3413 50.9919 12.656C51.1412 12.9707 51.2159 13.3067 51.2159 13.664V14.008H47.4239V13.432H50.6559L50.4799 13.744C50.4799 13.44 50.4319 13.1787 50.3359 12.96C50.2399 12.736 50.0959 12.5627 49.9039 12.44C49.7119 12.3173 49.4692 12.256 49.1759 12.256C48.8719 12.256 48.6185 12.3253 48.4159 12.464C48.2185 12.6027 48.0692 12.792 47.9679 13.032C47.8719 13.272 47.8239 13.5493 47.8239 13.864C47.8239 14.168 47.8719 14.4427 47.9679 14.688C48.0692 14.928 48.2239 15.12 48.4319 15.264C48.6399 15.4027 48.9039 15.472 49.2239 15.472C49.5599 15.472 49.8319 15.3973 50.0399 15.248C50.2532 15.0987 50.3812 14.9253 50.4239 14.728H51.1439C51.0852 15.0213 50.9679 15.2747 50.7919 15.488C50.6159 15.7013 50.3945 15.864 50.1279 15.976C49.8612 16.088 49.5599 16.144 49.2239 16.144ZM54.2386 16V10.16H55.2786L57.0066 14.056H57.1346L58.8546 10.16H59.9026V16H59.1186V11.016L59.1746 11.032L57.5186 14.792H56.5586L54.8946 11.032L54.9586 11.016V16H54.2386ZM63.302 16.144C62.9287 16.144 62.606 16.08 62.334 15.952C62.062 15.824 61.8407 15.656 61.67 15.448C61.4993 15.2347 61.3713 14.9973 61.286 14.736C61.206 14.4747 61.166 14.208 61.166 13.936V13.792C61.166 13.5147 61.206 13.2453 61.286 12.984C61.3713 12.7227 61.4993 12.488 61.67 12.28C61.8407 12.0667 62.0567 11.8987 62.318 11.776C62.5847 11.648 62.8967 11.584 63.254 11.584C63.718 11.584 64.0993 11.6853 64.398 11.888C64.702 12.0853 64.926 12.3413 65.07 12.656C65.2193 12.9707 65.294 13.3067 65.294 13.664V14.008H61.502V13.432H64.734L64.558 13.744C64.558 13.44 64.51 13.1787 64.414 12.96C64.318 12.736 64.174 12.5627 63.982 12.44C63.79 12.3173 63.5473 12.256 63.254 12.256C62.95 12.256 62.6967 12.3253 62.494 12.464C62.2967 12.6027 62.1473 12.792 62.046 13.032C61.95 13.272 61.902 13.5493 61.902 13.864C61.902 14.168 61.95 14.4427 62.046 14.688C62.1473 14.928 62.302 15.12 62.51 15.264C62.718 15.4027 62.982 15.472 63.302 15.472C63.638 15.472 63.91 15.3973 64.118 15.248C64.3313 15.0987 64.4593 14.9253 64.502 14.728H65.222C65.1633 15.0213 65.046 15.2747 64.87 15.488C64.694 15.7013 64.4727 15.864 64.206 15.976C63.9393 16.088 63.638 16.144 63.302 16.144ZM66.3844 16V11.728H66.9924V13.488H66.9604C66.9604 12.864 67.0964 12.408 67.3684 12.12C67.6458 11.8267 68.0591 11.68 68.6084 11.68H68.7524V12.368H68.4804C68.0538 12.368 67.7258 12.4827 67.4964 12.712C67.2671 12.936 67.1524 13.2613 67.1524 13.688V16H66.3844ZM71.4508 16.144C71.0828 16.144 70.7628 16.08 70.4908 15.952C70.2241 15.824 70.0028 15.6533 69.8268 15.44C69.6508 15.2213 69.5175 14.9813 69.4268 14.72C69.3415 14.4587 69.2988 14.1973 69.2988 13.936V13.792C69.2988 13.52 69.3415 13.2533 69.4268 12.992C69.5175 12.7307 69.6508 12.496 69.8268 12.288C70.0081 12.0747 70.2321 11.904 70.4988 11.776C70.7655 11.648 71.0775 11.584 71.4348 11.584C71.7921 11.584 72.1121 11.6507 72.3948 11.784C72.6828 11.9173 72.9121 12.1067 73.0828 12.352C73.2588 12.592 73.3575 12.8773 73.3788 13.208H72.6428C72.6055 12.9413 72.4828 12.72 72.2748 12.544C72.0668 12.3627 71.7868 12.272 71.4348 12.272C71.1308 12.272 70.8775 12.3413 70.6748 12.48C70.4721 12.6187 70.3201 12.808 70.2188 13.048C70.1175 13.288 70.0668 13.56 70.0668 13.864C70.0668 14.1573 70.1175 14.4267 70.2188 14.672C70.3201 14.912 70.4721 15.104 70.6748 15.248C70.8828 15.3867 71.1415 15.456 71.4508 15.456C71.6908 15.456 71.8988 15.4133 72.0748 15.328C72.2508 15.2427 72.3921 15.128 72.4988 14.984C72.6055 14.84 72.6695 14.6773 72.6908 14.496H73.4268C73.4108 14.832 73.3121 15.1227 73.1308 15.368C72.9548 15.6133 72.7201 15.8053 72.4268 15.944C72.1388 16.0773 71.8135 16.144 71.4508 16.144ZM74.4704 16V10.16H75.2384V13.648H75.0464C75.0464 13.2267 75.0997 12.864 75.2064 12.56C75.3184 12.2507 75.489 12.0133 75.7184 11.848C75.9477 11.6827 76.241 11.6 76.5984 11.6H76.6304C77.1424 11.6 77.529 11.7707 77.7904 12.112C78.0517 12.448 78.1824 12.9307 78.1824 13.56V16H77.4144V13.4C77.4144 13.0533 77.3157 12.784 77.1184 12.592C76.9264 12.4 76.6757 12.304 76.3664 12.304C76.025 12.304 75.7504 12.4187 75.5424 12.648C75.3397 12.872 75.2384 13.168 75.2384 13.536V16H74.4704Z" fill="white"/>
<path fill-rule="evenodd" clip-rule="evenodd" d="M11.7295 7H11.8278C12.1542 6.99999 12.4267 6.99999 12.6493 7.01817C12.8814 7.03714 13.0994 7.07815 13.3055 7.18317C13.6217 7.34429 13.8788 7.60138 14.0399 7.9176C14.1449 8.1237 14.1859 8.34166 14.2049 8.57381C14.2115 8.6544 14.2157 8.74152 14.2184 8.83537C14.3473 8.83743 14.4643 8.84157 14.5697 8.84991C14.789 8.86726 14.995 8.90476 15.1926 8.99995C15.497 9.14665 15.7501 9.38173 15.9189 9.67449C16.0285 9.86445 16.0811 10.0672 16.1146 10.2846C16.1466 10.4924 16.1655 10.7471 16.188 11.0511L16.5121 15.4271C16.5379 15.7755 16.5594 16.0653 16.5571 16.3022C16.5546 16.5485 16.5271 16.7814 16.4279 17.0039C16.2764 17.3436 16.0166 17.6234 15.689 17.7995C15.4745 17.9149 15.2442 17.9595 14.9988 17.9802C14.7627 18 14.4721 18 14.1228 18H9.43443C9.08511 18 8.79456 18 8.55845 17.9802C8.31302 17.9595 8.08272 17.9149 7.86819 17.7995C7.54065 17.6234 7.28079 17.3436 7.12932 17.0039C7.03011 16.7814 7.00262 16.5485 7.00018 16.3022C6.99783 16.0653 7.01929 15.7755 7.04511 15.4271L7.36925 11.0512C7.39177 10.7471 7.41063 10.4924 7.44266 10.2846C7.47616 10.0672 7.52878 9.86445 7.6383 9.67449C7.80709 9.38173 8.06022 9.14665 8.36465 8.99995C8.56219 8.90476 8.76823 8.86726 8.98754 8.84991C9.09294 8.84157 9.20989 8.83742 9.33889 8.83536C9.34156 8.74151 9.34576 8.6544 9.35235 8.57381C9.37132 8.34166 9.41233 8.1237 9.51734 7.9176C9.67846 7.60138 9.93556 7.34429 10.2518 7.18317C10.4579 7.07815 10.6758 7.03714 10.908 7.01817C11.1306 6.99999 11.403 6.99999 11.7295 7ZM9.33417 9.75223V10.8194C9.33417 11.0726 9.53938 11.2778 9.79251 11.2778C10.0456 11.2778 10.2508 11.0726 10.2508 10.8194V9.75H13.3064V10.8194C13.3064 11.0726 13.5116 11.2778 13.7647 11.2778C14.0179 11.2778 14.2231 11.0726 14.2231 10.8194V9.75223C14.3292 9.75409 14.4187 9.75749 14.4974 9.76372C14.661 9.77666 14.7407 9.79975 14.7946 9.82573C14.933 9.89242 15.0481 9.99927 15.1248 10.1323C15.1547 10.1842 15.1836 10.262 15.2086 10.4242C15.2345 10.5919 15.251 10.8102 15.2751 11.1366L15.5965 15.4755C15.6241 15.8482 15.6424 16.0993 15.6404 16.2931C15.6386 16.4819 15.6169 16.5719 15.5907 16.6306C15.5219 16.785 15.4038 16.9121 15.2549 16.9922C15.1983 17.0226 15.1102 17.0509 14.922 17.0667C14.7289 17.083 14.4771 17.0833 14.1034 17.0833H9.45383C9.08017 17.0833 8.82837 17.083 8.63524 17.0667C8.44707 17.0509 8.35892 17.0226 8.30236 16.9922C8.15348 16.9121 8.03536 16.785 7.96651 16.6306C7.94035 16.5719 7.91867 16.4819 7.9168 16.2931C7.91487 16.0993 7.9331 15.8482 7.9607 15.4755L8.2821 11.1366C8.30628 10.8102 8.32278 10.5919 8.34863 10.4242C8.37362 10.262 8.40254 10.1842 8.43243 10.1323C8.50916 9.99927 8.62422 9.89242 8.76259 9.82573C8.81651 9.79975 8.89623 9.77666 9.05983 9.76372C9.13855 9.75749 9.22803 9.75409 9.33417 9.75223ZM13.3012 8.83333H10.256C10.2582 8.76535 10.2614 8.70433 10.266 8.64846C10.2803 8.47299 10.3059 8.3891 10.3341 8.33376C10.4073 8.19002 10.5242 8.07316 10.6679 7.99993C10.7233 7.97173 10.8072 7.94613 10.9826 7.9318C11.1634 7.91702 11.3982 7.91667 11.7481 7.91667H11.8092C12.159 7.91667 12.3938 7.91702 12.5746 7.9318C12.7501 7.94613 12.834 7.97173 12.8893 7.99993C13.033 8.07316 13.1499 8.19002 13.2231 8.33376C13.2513 8.3891 13.2769 8.47299 13.2913 8.64846C13.2958 8.70433 13.299 8.76535 13.3012 8.83333Z" fill="white"/>
<rect x="0.5" y="0.5" width="85" height="24" rx="2.5" stroke="#466FFF"/>
</svg>
