<svg fill="none" height="18" viewBox="0 0 17 18" width="17" xmlns="http://www.w3.org/2000/svg">
    <path
        d="M15.9558 11.3541L14.2756 9.67392V7.44816C14.2737 5.91002 13.7015 4.42722 12.6697 3.28649C11.6379 2.14576 10.2198 1.42814 8.68953 1.27239V0H7.44816V1.27239C5.91792 1.42814 4.49978 2.14576 3.46797 3.28649C2.43616 4.42722 1.86397 5.91002 1.86204 7.44816V9.67392L0.181859 11.3541C0.0654511 11.4705 3.51537e-05 11.6283 0 11.7929V13.655C0 13.8196 0.0653929 13.9775 0.181793 14.0939C0.298193 14.2103 0.456066 14.2756 0.62068 14.2756H4.96544V14.7579C4.95194 15.5453 5.22948 16.31 5.74488 16.9055C6.26028 17.501 6.97729 17.8853 7.7585 17.9848C8.18999 18.0276 8.62565 17.9796 9.03747 17.8439C9.44929 17.7082 9.82816 17.4879 10.1497 17.197C10.4712 16.9061 10.7283 16.5511 10.9044 16.1549C11.0805 15.7586 11.1718 15.3299 11.1722 14.8963V14.2756H15.517C15.6816 14.2756 15.8395 14.2103 15.9559 14.0939C16.0723 13.9775 16.1377 13.8196 16.1377 13.655V11.7929C16.1377 11.6283 16.0722 11.4705 15.9558 11.3541ZM9.93089 14.8963C9.93089 15.3902 9.73471 15.8638 9.38551 16.213C9.03631 16.5622 8.56269 16.7584 8.06884 16.7584C7.575 16.7584 7.10138 16.5622 6.75218 16.213C6.40298 15.8638 6.2068 15.3902 6.2068 14.8963V14.2756H9.93089V14.8963ZM14.8963 13.0343H1.24136V12.0499L2.92154 10.3697C3.03795 10.2533 3.10337 10.0955 3.1034 9.93089V7.44816C3.1034 6.13125 3.62655 4.86827 4.55775 3.93707C5.48895 3.00586 6.75193 2.48272 8.06884 2.48272C9.38576 2.48272 10.6487 3.00586 11.5799 3.93707C12.5111 4.86827 13.0343 6.13125 13.0343 7.44816V9.93089C13.0343 10.0955 13.0997 10.2533 13.2161 10.3697L14.8963 12.0499V13.0343Z"
        fill="white" />
</svg>
