<svg fill="none" height="20" viewBox="0 0 20 20" width="20" xmlns="http://www.w3.org/2000/svg">
    <path
        d="M2.75891 17.3127C3.08175 16.9512 5.25064 15.2478 6.32868 14.4081C6.72131 14.1022 7.20292 13.9377 7.70061 13.9377C8.90404 13.9377 11.223 13.9377 12.4323 13.9377C12.9358 13.9377 13.4222 14.1092 13.8276 14.4079C15.2196 15.4333 16.5245 16.1974 17.9464 17.3127M4.44641 19H15.6964C17.5604 19 19.0714 17.489 19.0714 15.625V4.375C19.0714 2.51104 17.5604 1 15.6964 1H4.44641C2.58245 1 1.07141 2.51104 1.07141 4.375V15.625C1.07141 17.489 2.58245 19 4.44641 19ZM13.2951 7.44254C13.2951 5.7255 11.8456 4.32258 10.0714 4.32258C8.29731 4.32258 6.84777 5.7255 6.84777 7.44254C6.84777 9.15958 8.29731 10.5625 10.0714 10.5625C11.8455 10.5625 13.2951 9.15958 13.2951 7.44254Z"
        stroke="white" stroke-width="1.5" />
</svg>
