<svg fill="none" height="18" viewBox="0 0 19 18" width="19" xmlns="http://www.w3.org/2000/svg">
    <path
        d="M14.3381 12.952L18.1688 16.7462L16.9032 18L13.0734 14.2049C11.6484 15.3366 9.87592 15.9522 8.04956 15.9496C3.6062 15.9496 0 12.3769 0 7.9748C0 3.57271 3.6062 0 8.04956 0C12.4929 0 16.0991 3.57271 16.0991 7.9748C16.1017 9.78419 15.4804 11.5402 14.3381 12.952ZM12.5439 12.2945C13.679 11.138 14.3129 9.58786 14.3103 7.9748C14.3103 4.54741 11.5082 1.77218 8.04956 1.77218C4.59004 1.77218 1.78879 4.54741 1.78879 7.9748C1.78879 11.4013 4.59004 14.1774 8.04956 14.1774C9.67774 14.18 11.2425 13.5519 12.4097 12.4274L12.5439 12.2945Z"
        fill="white" />
</svg>
