<svg fill="none" height="40" viewBox="0 0 40 40" width="40" xmlns="http://www.w3.org/2000/svg">
    <circle cx="20" cy="20" fill="white" r="20" />
    <path
        d="M27.0793 20.548L23.9621 23.6652C23.8481 23.7742 23.6967 23.8353 23.5391 23.8359C23.4213 23.8357 23.3063 23.8005 23.2086 23.7348C23.1109 23.6691 23.035 23.5758 22.9904 23.4668C22.9459 23.3579 22.9348 23.2381 22.9584 23.1228C22.9821 23.0074 23.0396 22.9018 23.1234 22.8191L25.2238 20.7188H18.3438C18.1863 20.7188 18.0353 20.6562 17.9239 20.5448C17.8126 20.4335 17.75 20.2825 17.75 20.125C17.75 19.9675 17.8126 19.8165 17.9239 19.7052C18.0353 19.5938 18.1863 19.5312 18.3438 19.5312H25.2238L23.1234 17.4309C23.0112 17.3196 22.9478 17.1684 22.9471 17.0104C22.9464 16.8525 23.0085 16.7007 23.1197 16.5885C23.2309 16.4763 23.3822 16.4129 23.5401 16.4122C23.6981 16.4115 23.8499 16.4736 23.9621 16.5848L27.0793 19.702C27.1908 19.8145 27.2533 19.9666 27.2533 20.125C27.2533 20.2834 27.1908 20.4355 27.0793 20.548ZM18.3438 26.0625H14.1875V14.1875H18.3438C18.5012 14.1875 18.6522 14.1249 18.7636 14.0136C18.8749 13.9022 18.9375 13.7512 18.9375 13.5938C18.9375 13.4363 18.8749 13.2853 18.7636 13.1739C18.6522 13.0626 18.5012 13 18.3438 13H14.1875C13.8726 13 13.5705 13.1251 13.3478 13.3478C13.1251 13.5705 13 13.8726 13 14.1875V26.0625C13 26.3774 13.1251 26.6795 13.3478 26.9022C13.5705 27.1249 13.8726 27.25 14.1875 27.25H18.3438C18.5012 27.25 18.6522 27.1874 18.7636 27.0761C18.8749 26.9647 18.9375 26.8137 18.9375 26.6562C18.9375 26.4988 18.8749 26.3478 18.7636 26.2364C18.6522 26.1251 18.5012 26.0625 18.3438 26.0625Z"
        fill="#0F0F10" />
</svg>
