<svg width="17" height="18" viewBox="0 0 17 18" fill="none" xmlns="http://www.w3.org/2000/svg">
<path d="M15.6023 11.7077L15.6023 11.7077L13.9221 10.0275L13.7756 9.88103V9.67392V7.44879C13.7739 6.03438 13.2477 4.67086 12.2989 3.6219C11.3501 2.57294 10.046 1.91304 8.6389 1.76982L8.18953 1.72409V1.27239V0.5H7.94816V1.27239V1.72409L7.49879 1.76982C6.09165 1.91304 4.78759 2.57294 3.83878 3.6219C2.89005 4.67077 2.3639 6.03414 2.36204 7.44842V9.67392V9.88103L2.21559 10.0275L0.535413 11.7077L0.535359 11.7077C0.512751 11.7303 0.500035 11.761 0.5 11.7929L15.6023 11.7077ZM15.6023 11.7077C15.6249 11.7303 15.6377 11.761 15.6377 11.7929L15.6023 11.7077ZM5.46544 13.7756V14.2756V14.7579V14.7665L5.46537 14.7665C5.45398 15.4308 5.68812 16.0759 6.12294 16.5783C6.55623 17.0789 7.15841 17.4026 7.81479 17.488C8.17457 17.5227 8.53766 17.4822 8.881 17.369C9.22655 17.2552 9.54445 17.0703 9.81424 16.8262C10.084 16.5821 10.2998 16.2842 10.4475 15.9518C10.5953 15.6193 10.6718 15.2596 10.6722 14.8958V14.2756V13.7756H11.1722H15.517C15.549 13.7756 15.5797 13.7629 15.6023 13.7403C15.625 13.7177 15.6377 13.687 15.6377 13.655V11.793L5.46544 13.7756ZM5.46544 13.7756H4.96544M5.46544 13.7756H4.96544M4.96544 13.7756H0.62068C0.588673 13.7756 0.557978 13.7629 0.535346 13.7403C0.512715 13.7177 0.5 13.687 0.5 13.655V11.793L4.96544 13.7756ZM15.3963 13.5343H14.8963H1.24136H0.741361V13.0343V12.0499V11.8428L0.887807 11.6963L2.56799 10.0162L2.56804 10.0161C2.59065 9.9935 2.60337 9.96285 2.6034 9.93089L15.3963 13.5343ZM15.3963 13.5343V13.0343M15.3963 13.5343V13.0343M15.3963 13.0343V12.0499V11.8428L15.2499 11.6963L13.5697 10.0162L13.5696 10.0161M15.3963 13.0343L13.5696 10.0161M13.5696 10.0161C13.547 9.9935 13.5343 9.96285 13.5343 9.93089L13.5696 10.0161ZM6.2068 13.7756H5.7068V14.2756V14.8963C5.7068 15.5228 5.95566 16.1236 6.39863 16.5665C6.8416 17.0095 7.44239 17.2584 8.06884 17.2584C8.6953 17.2584 9.29609 17.0095 9.73906 16.5665C10.182 16.1236 10.4309 15.5228 10.4309 14.8963V14.2756V13.7756H9.93089H6.2068ZM2.6034 7.44816V9.93078H13.5343V7.44816C13.5343 5.99864 12.9585 4.60848 11.9335 3.58351C10.9085 2.55854 9.51837 1.98272 8.06884 1.98272C6.61932 1.98272 5.22916 2.55854 4.20419 3.58351C3.17922 4.60848 2.6034 5.99864 2.6034 7.44816Z" stroke="white"/>
</svg>
